<svg xmlns="http://www.w3.org/2000/svg" xmlns:xlink="http://www.w3.org/1999/xlink" width="1080" zoomAndPan="magnify" viewBox="0 0 810 1012.49997" height="1350" preserveAspectRatio="xMidYMid meet" version="1.0"><defs><g/><clipPath id="5cf7ce7727"><path d="M 201.035156 435.253906 L 542 435.253906 L 542 660.894531 L 201.035156 660.894531 Z M 201.035156 435.253906 " clip-rule="nonzero"/></clipPath><clipPath id="2626c7f527"><rect x="0" width="275" y="0" height="46"/></clipPath></defs><g clip-path="url(#5cf7ce7727)"><path fill="#ffffff" d="M 526.664062 618.179688 L 511.558594 618.179688 L 500.460938 554.230469 C 492.75 509.785156 463.710938 473.199219 422.652344 456 C 422.488281 455.648438 422.324219 455.28125 422.164062 454.933594 C 416.410156 442.589844 404.84375 435.21875 391.230469 435.21875 L 351.964844 435.21875 C 338.34375 435.21875 326.78125 442.589844 321.035156 454.933594 C 320.871094 455.285156 320.707031 455.648438 320.546875 456 C 279.484375 473.199219 250.453125 509.785156 242.734375 554.230469 L 231.636719 618.179688 L 216.53125 618.179688 C 208.105469 618.179688 201.25 625.039062 201.25 633.460938 L 201.25 645.488281 C 201.25 653.910156 208.105469 660.769531 216.53125 660.769531 L 526.671875 660.769531 C 535.097656 660.769531 541.953125 653.910156 541.953125 645.488281 L 541.953125 633.460938 C 541.953125 625.035156 535.097656 618.179688 526.671875 618.179688 Z M 371.59375 633.84375 C 344.210938 633.84375 321.9375 611.570312 321.9375 584.1875 C 321.9375 556.804688 344.210938 534.53125 371.59375 534.53125 C 398.976562 534.53125 421.25 556.804688 421.25 584.1875 C 421.25 611.570312 398.976562 633.84375 371.59375 633.84375 Z M 427.203125 601.160156 L 500 601.160156 L 502.957031 618.179688 L 418.71875 618.179688 C 422.425781 613.0625 425.316406 607.332031 427.203125 601.160156 Z M 429.105469 575.699219 L 495.578125 575.699219 L 498.523438 592.675781 L 429.105469 592.675781 C 429.515625 589.90625 429.734375 587.070312 429.734375 584.1875 C 429.734375 581.304688 429.515625 578.46875 429.105469 575.699219 Z M 492.105469 555.6875 L 494.105469 567.222656 L 451.277344 567.222656 C 446.472656 529.308594 438.195312 494.636719 427.578125 467.628906 C 461.589844 484.933594 485.410156 517.148438 492.097656 555.6875 Z M 328.71875 458.515625 C 333.035156 449.242188 341.730469 443.703125 351.964844 443.703125 L 391.230469 443.703125 C 401.464844 443.703125 410.152344 449.234375 414.480469 458.515625 C 427.230469 485.894531 437.21875 524.347656 442.730469 567.214844 L 427.203125 567.214844 C 419.921875 543.410156 397.753906 526.050781 371.59375 526.050781 C 345.433594 526.050781 323.265625 543.417969 315.988281 567.214844 L 300.457031 567.214844 C 305.976562 524.347656 315.957031 485.894531 328.710938 458.515625 Z M 314.085938 592.675781 L 244.664062 592.675781 L 247.613281 575.699219 L 314.085938 575.699219 C 313.675781 578.46875 313.457031 581.304688 313.457031 584.1875 C 313.457031 587.070312 313.675781 589.90625 314.085938 592.675781 Z M 315.605469 467.628906 C 304.988281 494.636719 296.71875 529.300781 291.902344 567.222656 L 249.074219 567.222656 L 251.078125 555.6875 C 257.761719 517.148438 281.585938 484.933594 315.597656 467.628906 Z M 243.195312 601.160156 L 315.992188 601.160156 C 317.882812 607.332031 320.777344 613.070312 324.476562 618.179688 L 240.242188 618.179688 Z M 533.464844 645.488281 C 533.464844 649.234375 530.410156 652.285156 526.664062 652.285156 L 216.523438 652.285156 C 212.777344 652.285156 209.726562 649.234375 209.726562 645.488281 L 209.726562 633.460938 C 209.726562 629.714844 212.777344 626.664062 216.523438 626.664062 L 331.953125 626.664062 C 342.34375 636.367188 356.285156 642.328125 371.59375 642.328125 C 386.90625 642.328125 400.835938 636.367188 411.234375 626.664062 L 526.664062 626.664062 C 530.410156 626.664062 533.464844 629.714844 533.464844 633.460938 Z M 371.59375 543.90625 C 349.386719 543.90625 331.3125 561.972656 331.3125 584.1875 C 331.3125 606.40625 349.378906 624.472656 371.59375 624.472656 C 393.8125 624.472656 411.878906 606.40625 411.878906 584.1875 C 411.878906 561.972656 393.8125 543.90625 371.59375 543.90625 Z M 371.59375 615.988281 C 354.058594 615.988281 339.792969 601.726562 339.792969 584.1875 C 339.792969 566.652344 354.058594 552.386719 371.59375 552.386719 C 389.132812 552.386719 403.394531 566.652344 403.394531 584.1875 C 403.394531 601.726562 389.132812 615.988281 371.59375 615.988281 Z M 371.59375 615.988281 " fill-opacity="1" fill-rule="nonzero"/></g><g transform="matrix(1, 0, 0, 1, 234, 660)"><g clip-path="url(#2626c7f527)"><g fill="#ffffff" fill-opacity="1"><g transform="translate(0.86148, 36.532866)"><g><path d="M 18.53125 -26.546875 C 18.726562 -26.921875 19.066406 -27.179688 19.546875 -27.328125 C 20.023438 -27.484375 20.625 -27.5625 21.34375 -27.5625 C 22.070312 -27.5625 22.648438 -27.5 23.078125 -27.375 C 23.503906 -27.25 23.828125 -27.097656 24.046875 -26.921875 C 24.273438 -26.742188 24.457031 -26.492188 24.59375 -26.171875 C 24.71875 -25.742188 24.78125 -25.085938 24.78125 -24.203125 L 24.78125 -3.34375 C 24.78125 -2.769531 24.757812 -2.335938 24.71875 -2.046875 C 24.675781 -1.753906 24.554688 -1.421875 24.359375 -1.046875 C 24.003906 -0.367188 23.023438 -0.03125 21.421875 -0.03125 C 19.671875 -0.03125 18.644531 -0.492188 18.34375 -1.421875 C 18.195312 -1.847656 18.125 -2.503906 18.125 -3.390625 L 18.125 -11.015625 L 8.15625 -11.015625 L 8.15625 -3.34375 C 8.15625 -2.769531 8.132812 -2.335938 8.09375 -2.046875 C 8.0625 -1.753906 7.945312 -1.421875 7.75 -1.046875 C 7.394531 -0.367188 6.414062 -0.03125 4.8125 -0.03125 C 3.0625 -0.03125 2.035156 -0.492188 1.734375 -1.421875 C 1.578125 -1.847656 1.5 -2.503906 1.5 -3.390625 L 1.5 -24.25 C 1.5 -24.820312 1.515625 -25.253906 1.546875 -25.546875 C 1.585938 -25.835938 1.710938 -26.171875 1.921875 -26.546875 C 2.265625 -27.222656 3.238281 -27.5625 4.84375 -27.5625 C 6.601562 -27.5625 7.644531 -27.097656 7.96875 -26.171875 C 8.09375 -25.742188 8.15625 -25.085938 8.15625 -24.203125 L 8.15625 -16.546875 L 18.125 -16.546875 L 18.125 -24.25 C 18.125 -24.820312 18.140625 -25.253906 18.171875 -25.546875 C 18.210938 -25.835938 18.332031 -26.171875 18.53125 -26.546875 Z M 18.53125 -26.546875 "/></g></g></g><g fill="#ffffff" fill-opacity="1"><g transform="translate(27.140297, 36.532866)"><g><path d="M 0.9375 -9.890625 C 0.9375 -12.898438 1.988281 -15.378906 4.09375 -17.328125 C 6.195312 -19.285156 8.601562 -20.265625 11.3125 -20.265625 C 14.019531 -20.265625 16.410156 -19.289062 18.484375 -17.34375 C 20.566406 -15.40625 21.609375 -12.929688 21.609375 -9.921875 C 21.609375 -7.835938 21.070312 -5.988281 20 -4.375 C 18.925781 -2.757812 17.617188 -1.566406 16.078125 -0.796875 C 14.535156 -0.0351562 12.9375 0.34375 11.28125 0.34375 C 9.625 0.34375 8.019531 -0.0625 6.46875 -0.875 C 4.914062 -1.695312 3.601562 -2.898438 2.53125 -4.484375 C 1.46875 -6.078125 0.9375 -7.878906 0.9375 -9.890625 Z M 8.796875 -7.203125 C 9.597656 -6.585938 10.410156 -6.28125 11.234375 -6.28125 C 12.066406 -6.28125 12.894531 -6.59375 13.71875 -7.21875 C 14.550781 -7.84375 14.96875 -8.769531 14.96875 -10 C 14.96875 -11.226562 14.578125 -12.140625 13.796875 -12.734375 C 13.015625 -13.335938 12.171875 -13.640625 11.265625 -13.640625 C 10.367188 -13.640625 9.53125 -13.328125 8.75 -12.703125 C 7.976562 -12.078125 7.59375 -11.15625 7.59375 -9.9375 C 7.59375 -8.726562 7.992188 -7.816406 8.796875 -7.203125 Z M 8.796875 -7.203125 "/></g></g></g><g fill="#ffffff" fill-opacity="1"><g transform="translate(49.697227, 36.532866)"><g><path d="M 1.5 -25.828125 C 1.5 -26.398438 1.515625 -26.832031 1.546875 -27.125 C 1.585938 -27.414062 1.695312 -27.75 1.875 -28.125 C 2.226562 -28.800781 3.207031 -29.140625 4.8125 -29.140625 C 6.34375 -29.140625 7.296875 -28.800781 7.671875 -28.125 C 7.867188 -27.75 7.984375 -27.410156 8.015625 -27.109375 C 8.054688 -26.804688 8.078125 -26.367188 8.078125 -25.796875 L 8.078125 -8.390625 C 8.078125 -7.484375 8.148438 -6.910156 8.296875 -6.671875 C 8.453125 -6.429688 8.785156 -6.3125 9.296875 -6.3125 C 9.816406 -6.3125 10.160156 -6.289062 10.328125 -6.25 C 10.503906 -6.21875 10.722656 -6.113281 10.984375 -5.9375 C 11.484375 -5.613281 11.734375 -4.722656 11.734375 -3.265625 C 11.734375 -1.691406 11.484375 -0.726562 10.984375 -0.375 C 10.328125 0.0703125 8.769531 0.144531 6.3125 -0.15625 C 4.382812 -0.40625 3.132812 -1.039062 2.5625 -2.0625 C 1.851562 -3.289062 1.5 -5.25 1.5 -7.9375 Z M 1.5 -25.828125 "/></g></g></g><g fill="#ffffff" fill-opacity="1"><g transform="translate(61.990749, 36.532866)"><g><path d="M 14.359375 -17.703125 C 14.515625 -19.109375 15.503906 -19.8125 17.328125 -19.8125 C 18.304688 -19.8125 19.03125 -19.734375 19.5 -19.578125 C 19.976562 -19.429688 20.3125 -19.171875 20.5 -18.796875 C 20.695312 -18.421875 20.8125 -18.085938 20.84375 -17.796875 C 20.882812 -17.515625 20.90625 -17.082031 20.90625 -16.5 L 20.90625 -3.34375 C 20.90625 -2.769531 20.882812 -2.335938 20.84375 -2.046875 C 20.8125 -1.753906 20.707031 -1.421875 20.53125 -1.046875 C 20.175781 -0.398438 19.316406 -0.078125 17.953125 -0.078125 C 16.585938 -0.078125 15.671875 -0.242188 15.203125 -0.578125 C 14.742188 -0.921875 14.476562 -1.414062 14.40625 -2.0625 C 13.46875 -0.738281 11.914062 -0.078125 9.75 -0.078125 C 7.582031 -0.078125 5.570312 -1.066406 3.71875 -3.046875 C 1.863281 -5.023438 0.9375 -7.320312 0.9375 -9.9375 C 0.9375 -12.5625 1.867188 -14.859375 3.734375 -16.828125 C 5.609375 -18.796875 7.660156 -19.78125 9.890625 -19.78125 C 10.742188 -19.78125 11.519531 -19.628906 12.21875 -19.328125 C 12.914062 -19.023438 13.398438 -18.738281 13.671875 -18.46875 C 13.953125 -18.207031 14.179688 -17.953125 14.359375 -17.703125 Z M 7.515625 -9.875 C 7.515625 -9.050781 7.835938 -8.304688 8.484375 -7.640625 C 9.140625 -6.984375 9.929688 -6.65625 10.859375 -6.65625 C 11.785156 -6.65625 12.554688 -6.992188 13.171875 -7.671875 C 13.785156 -8.347656 14.09375 -9.09375 14.09375 -9.90625 C 14.09375 -10.71875 13.796875 -11.472656 13.203125 -12.171875 C 12.617188 -12.878906 11.832031 -13.234375 10.84375 -13.234375 C 9.851562 -13.234375 9.050781 -12.878906 8.4375 -12.171875 C 7.820312 -11.472656 7.515625 -10.707031 7.515625 -9.875 Z M 7.515625 -9.875 "/></g></g></g><g fill="#ffffff" fill-opacity="1"><g transform="translate(84.397296, 36.532866)"><g><path d="M 18.71875 -7.21875 L 19.390625 -7.703125 C 20.242188 -8.203125 20.847656 -8.453125 21.203125 -8.453125 C 21.984375 -8.453125 22.820312 -7.753906 23.71875 -6.359375 C 24.269531 -5.472656 24.546875 -4.765625 24.546875 -4.234375 C 24.546875 -3.710938 24.375 -3.273438 24.03125 -2.921875 C 23.695312 -2.578125 23.304688 -2.265625 22.859375 -1.984375 C 22.410156 -1.710938 21.976562 -1.453125 21.5625 -1.203125 C 21.144531 -0.953125 20.296875 -0.625 19.015625 -0.21875 C 17.742188 0.175781 16.507812 0.375 15.3125 0.375 C 14.125 0.375 12.921875 0.21875 11.703125 -0.09375 C 10.492188 -0.40625 9.242188 -0.929688 7.953125 -1.671875 C 6.660156 -2.410156 5.5 -3.3125 4.46875 -4.375 C 3.445312 -5.445312 2.601562 -6.816406 1.9375 -8.484375 C 1.269531 -10.148438 0.9375 -11.957031 0.9375 -13.90625 C 0.9375 -15.863281 1.257812 -17.632812 1.90625 -19.21875 C 2.5625 -20.8125 3.394531 -22.128906 4.40625 -23.171875 C 5.425781 -24.210938 6.585938 -25.085938 7.890625 -25.796875 C 10.347656 -27.140625 12.816406 -27.8125 15.296875 -27.8125 C 16.472656 -27.8125 17.671875 -27.628906 18.890625 -27.265625 C 20.109375 -26.910156 21.03125 -26.546875 21.65625 -26.171875 L 22.5625 -25.640625 C 23.007812 -25.359375 23.359375 -25.132812 23.609375 -24.96875 C 24.265625 -24.4375 24.59375 -23.835938 24.59375 -23.171875 C 24.59375 -22.515625 24.328125 -21.820312 23.796875 -21.09375 C 22.816406 -19.738281 21.941406 -19.0625 21.171875 -19.0625 C 20.710938 -19.0625 20.070312 -19.335938 19.25 -19.890625 C 18.195312 -20.742188 16.789062 -21.171875 15.03125 -21.171875 C 13.40625 -21.171875 11.800781 -20.601562 10.21875 -19.46875 C 9.46875 -18.914062 8.84375 -18.140625 8.34375 -17.140625 C 7.84375 -16.140625 7.59375 -15.003906 7.59375 -13.734375 C 7.59375 -12.472656 7.84375 -11.335938 8.34375 -10.328125 C 8.84375 -9.328125 9.484375 -8.539062 10.265625 -7.96875 C 11.796875 -6.863281 13.382812 -6.3125 15.03125 -6.3125 C 15.8125 -6.3125 16.546875 -6.410156 17.234375 -6.609375 C 17.921875 -6.816406 18.414062 -7.019531 18.71875 -7.21875 Z M 18.71875 -7.21875 "/></g></g></g><g fill="#ffffff" fill-opacity="1"><g transform="translate(109.172311, 36.532866)"><g><path d="M 14.359375 -17.703125 C 14.515625 -19.109375 15.503906 -19.8125 17.328125 -19.8125 C 18.304688 -19.8125 19.03125 -19.734375 19.5 -19.578125 C 19.976562 -19.429688 20.3125 -19.171875 20.5 -18.796875 C 20.695312 -18.421875 20.8125 -18.085938 20.84375 -17.796875 C 20.882812 -17.515625 20.90625 -17.082031 20.90625 -16.5 L 20.90625 -3.34375 C 20.90625 -2.769531 20.882812 -2.335938 20.84375 -2.046875 C 20.8125 -1.753906 20.707031 -1.421875 20.53125 -1.046875 C 20.175781 -0.398438 19.316406 -0.078125 17.953125 -0.078125 C 16.585938 -0.078125 15.671875 -0.242188 15.203125 -0.578125 C 14.742188 -0.921875 14.476562 -1.414062 14.40625 -2.0625 C 13.46875 -0.738281 11.914062 -0.078125 9.75 -0.078125 C 7.582031 -0.078125 5.570312 -1.066406 3.71875 -3.046875 C 1.863281 -5.023438 0.9375 -7.320312 0.9375 -9.9375 C 0.9375 -12.5625 1.867188 -14.859375 3.734375 -16.828125 C 5.609375 -18.796875 7.660156 -19.78125 9.890625 -19.78125 C 10.742188 -19.78125 11.519531 -19.628906 12.21875 -19.328125 C 12.914062 -19.023438 13.398438 -18.738281 13.671875 -18.46875 C 13.953125 -18.207031 14.179688 -17.953125 14.359375 -17.703125 Z M 7.515625 -9.875 C 7.515625 -9.050781 7.835938 -8.304688 8.484375 -7.640625 C 9.140625 -6.984375 9.929688 -6.65625 10.859375 -6.65625 C 11.785156 -6.65625 12.554688 -6.992188 13.171875 -7.671875 C 13.785156 -8.347656 14.09375 -9.09375 14.09375 -9.90625 C 14.09375 -10.71875 13.796875 -11.472656 13.203125 -12.171875 C 12.617188 -12.878906 11.832031 -13.234375 10.84375 -13.234375 C 9.851562 -13.234375 9.050781 -12.878906 8.4375 -12.171875 C 7.820312 -11.472656 7.515625 -10.707031 7.515625 -9.875 Z M 7.515625 -9.875 "/></g></g></g><g fill="#ffffff" fill-opacity="1"><g transform="translate(131.578858, 36.532866)"><g><path d="M 7.703125 -9.90625 C 7.703125 -8.84375 8.050781 -8.015625 8.75 -7.421875 C 9.457031 -6.835938 10.207031 -6.546875 11 -6.546875 C 11.789062 -6.546875 12.53125 -6.773438 13.21875 -7.234375 C 13.90625 -7.703125 14.460938 -7.9375 14.890625 -7.9375 C 15.640625 -7.9375 16.550781 -7.269531 17.625 -5.9375 C 18.207031 -5.207031 18.5 -4.554688 18.5 -3.984375 C 18.5 -3.035156 17.804688 -2.144531 16.421875 -1.3125 C 14.992188 -0.3125 13.242188 0.1875 11.171875 0.1875 C 8.835938 0.1875 6.59375 -0.648438 4.4375 -2.328125 C 3.40625 -3.128906 2.5625 -4.203125 1.90625 -5.546875 C 1.257812 -6.890625 0.9375 -8.367188 0.9375 -9.984375 C 0.9375 -11.597656 1.257812 -13.0625 1.90625 -14.375 C 2.5625 -15.695312 3.40625 -16.757812 4.4375 -17.5625 C 6.519531 -19.207031 8.738281 -20.03125 11.09375 -20.03125 C 12.039062 -20.03125 12.960938 -19.898438 13.859375 -19.640625 C 14.765625 -19.378906 15.429688 -19.125 15.859375 -18.875 L 16.46875 -18.5 C 16.914062 -18.195312 17.265625 -17.957031 17.515625 -17.78125 C 18.171875 -17.28125 18.5 -16.707031 18.5 -16.0625 C 18.5 -15.425781 18.234375 -14.707031 17.703125 -13.90625 C 16.804688 -12.53125 15.941406 -11.84375 15.109375 -11.84375 C 14.640625 -11.84375 13.960938 -12.117188 13.078125 -12.671875 C 12.628906 -13.097656 11.984375 -13.3125 11.140625 -13.3125 C 10.304688 -13.3125 9.523438 -13.007812 8.796875 -12.40625 C 8.066406 -11.800781 7.703125 -10.96875 7.703125 -9.90625 Z M 7.703125 -9.90625 "/></g></g></g><g fill="#ffffff" fill-opacity="1"><g transform="translate(150.789829, 36.532866)"><g><path d="M 12.484375 -19.734375 C 14.984375 -19.734375 17.066406 -18.78125 18.734375 -16.875 C 20.398438 -14.96875 21.234375 -12.640625 21.234375 -9.890625 L 21.234375 -3.265625 C 21.234375 -2.691406 21.210938 -2.257812 21.171875 -1.96875 C 21.140625 -1.6875 21.023438 -1.359375 20.828125 -0.984375 C 20.503906 -0.328125 19.539062 0 17.9375 0 C 16.40625 0 15.453125 -0.328125 15.078125 -0.984375 C 14.878906 -1.359375 14.757812 -1.691406 14.71875 -1.984375 C 14.675781 -2.285156 14.65625 -2.738281 14.65625 -3.34375 L 14.65625 -9.921875 C 14.65625 -10.953125 14.367188 -11.753906 13.796875 -12.328125 C 13.222656 -12.910156 12.488281 -13.203125 11.59375 -13.203125 C 10.707031 -13.203125 9.925781 -12.929688 9.25 -12.390625 C 8.570312 -11.847656 8.179688 -11.238281 8.078125 -10.5625 L 8.078125 -3.265625 C 8.078125 -2.691406 8.054688 -2.257812 8.015625 -1.96875 C 7.984375 -1.6875 7.867188 -1.359375 7.671875 -0.984375 C 7.347656 -0.328125 6.382812 0 4.78125 0 C 3.195312 0 2.226562 -0.335938 1.875 -1.015625 C 1.695312 -1.390625 1.585938 -1.710938 1.546875 -1.984375 C 1.515625 -2.265625 1.5 -2.707031 1.5 -3.3125 L 1.5 -25.796875 C 1.5 -26.367188 1.515625 -26.796875 1.546875 -27.078125 C 1.585938 -27.367188 1.695312 -27.691406 1.875 -28.046875 C 2.226562 -28.722656 3.207031 -29.0625 4.8125 -29.0625 C 6.394531 -29.0625 7.347656 -28.722656 7.671875 -28.046875 C 7.867188 -27.671875 7.984375 -27.335938 8.015625 -27.046875 C 8.054688 -26.753906 8.078125 -26.320312 8.078125 -25.75 L 8.078125 -17.4375 C 9.335938 -18.96875 10.804688 -19.734375 12.484375 -19.734375 Z M 12.484375 -19.734375 "/></g></g></g><g fill="#ffffff" fill-opacity="1"><g transform="translate(173.534731, 36.532866)"><g><path d="M 20.59375 -12.28125 C 20.59375 -10.738281 20.210938 -9.597656 19.453125 -8.859375 C 18.691406 -8.117188 17.847656 -7.75 16.921875 -7.75 L 8 -7.75 C 8 -7.039062 8.410156 -6.445312 9.234375 -5.96875 C 10.066406 -5.5 10.898438 -5.265625 11.734375 -5.265625 C 13.179688 -5.265625 14.320312 -5.414062 15.15625 -5.71875 L 15.5625 -5.859375 C 16.164062 -6.140625 16.664062 -6.28125 17.0625 -6.28125 C 17.863281 -6.28125 18.554688 -5.71875 19.140625 -4.59375 C 19.460938 -3.914062 19.625 -3.335938 19.625 -2.859375 C 19.625 -0.628906 16.953125 0.484375 11.609375 0.484375 C 9.753906 0.484375 8.109375 0.164062 6.671875 -0.46875 C 5.234375 -1.101562 4.113281 -1.945312 3.3125 -3 C 1.726562 -5.03125 0.9375 -7.300781 0.9375 -9.8125 C 0.9375 -12.96875 1.957031 -15.488281 4 -17.375 C 6.039062 -19.269531 8.59375 -20.21875 11.65625 -20.21875 C 15.132812 -20.21875 17.691406 -18.992188 19.328125 -16.546875 C 20.171875 -15.242188 20.59375 -13.820312 20.59375 -12.28125 Z M 12.671875 -11.171875 C 13.617188 -11.171875 14.09375 -11.570312 14.09375 -12.375 C 14.09375 -12.945312 13.875 -13.40625 13.4375 -13.75 C 13 -14.101562 12.375 -14.28125 11.5625 -14.28125 C 10.75 -14.28125 9.941406 -13.945312 9.140625 -13.28125 C 8.335938 -12.625 7.9375 -11.921875 7.9375 -11.171875 Z M 12.671875 -11.171875 "/></g></g></g><g fill="#ffffff" fill-opacity="1"><g transform="translate(195.076596, 36.532866)"><g><path d="M 14.953125 -19.578125 C 15.429688 -19.429688 15.828125 -19.175781 16.140625 -18.8125 C 16.453125 -18.445312 16.609375 -17.863281 16.609375 -17.0625 C 16.609375 -16.257812 16.367188 -15.378906 15.890625 -14.421875 C 15.421875 -13.472656 14.734375 -13 13.828125 -13 C 13.378906 -13 12.945312 -13.097656 12.53125 -13.296875 C 12.125 -13.503906 11.582031 -13.609375 10.90625 -13.609375 C 10.226562 -13.609375 9.59375 -13.367188 9 -12.890625 C 8.414062 -12.421875 8.125 -11.847656 8.125 -11.171875 L 8.125 -3.265625 C 8.125 -2.691406 8.101562 -2.257812 8.0625 -1.96875 C 8.019531 -1.6875 7.898438 -1.359375 7.703125 -0.984375 C 7.328125 -0.328125 6.351562 0 4.78125 0 C 3.570312 0 2.707031 -0.210938 2.1875 -0.640625 C 1.78125 -0.992188 1.550781 -1.53125 1.5 -2.25 C 1.5 -2.5 1.5 -2.863281 1.5 -3.34375 L 1.5 -16.546875 C 1.5 -17.117188 1.515625 -17.546875 1.546875 -17.828125 C 1.585938 -18.117188 1.695312 -18.441406 1.875 -18.796875 C 2.226562 -19.472656 3.207031 -19.8125 4.8125 -19.8125 C 6.3125 -19.8125 7.25 -19.523438 7.625 -18.953125 C 7.90625 -18.546875 8.046875 -18.128906 8.046875 -17.703125 C 8.171875 -17.878906 8.351562 -18.09375 8.59375 -18.34375 C 8.832031 -18.59375 9.335938 -18.929688 10.109375 -19.359375 C 10.890625 -19.785156 11.570312 -20 12.15625 -20 C 12.75 -20 13.242188 -19.96875 13.640625 -19.90625 C 14.046875 -19.84375 14.484375 -19.734375 14.953125 -19.578125 Z M 14.953125 -19.578125 "/></g></g></g><g fill="#ffffff" fill-opacity="1"><g transform="translate(211.129609, 36.532866)"><g><path d="M 0.9375 -9.890625 C 0.9375 -12.898438 1.988281 -15.378906 4.09375 -17.328125 C 6.195312 -19.285156 8.601562 -20.265625 11.3125 -20.265625 C 14.019531 -20.265625 16.410156 -19.289062 18.484375 -17.34375 C 20.566406 -15.40625 21.609375 -12.929688 21.609375 -9.921875 C 21.609375 -7.835938 21.070312 -5.988281 20 -4.375 C 18.925781 -2.757812 17.617188 -1.566406 16.078125 -0.796875 C 14.535156 -0.0351562 12.9375 0.34375 11.28125 0.34375 C 9.625 0.34375 8.019531 -0.0625 6.46875 -0.875 C 4.914062 -1.695312 3.601562 -2.898438 2.53125 -4.484375 C 1.46875 -6.078125 0.9375 -7.878906 0.9375 -9.890625 Z M 8.796875 -7.203125 C 9.597656 -6.585938 10.410156 -6.28125 11.234375 -6.28125 C 12.066406 -6.28125 12.894531 -6.59375 13.71875 -7.21875 C 14.550781 -7.84375 14.96875 -8.769531 14.96875 -10 C 14.96875 -11.226562 14.578125 -12.140625 13.796875 -12.734375 C 13.015625 -13.335938 12.171875 -13.640625 11.265625 -13.640625 C 10.367188 -13.640625 9.53125 -13.328125 8.75 -12.703125 C 7.976562 -12.078125 7.59375 -11.15625 7.59375 -9.9375 C 7.59375 -8.726562 7.992188 -7.816406 8.796875 -7.203125 Z M 8.796875 -7.203125 "/></g></g></g><g fill="#ffffff" fill-opacity="1"><g transform="translate(233.686539, 36.532866)"><g><path d="M 7.328125 -6.203125 C 7.753906 -5.773438 7.96875 -4.898438 7.96875 -3.578125 L 7.96875 -3.421875 C 7.96875 -2.816406 7.945312 -2.367188 7.90625 -2.078125 C 7.875 -1.796875 7.742188 -1.453125 7.515625 -1.046875 C 7.140625 -0.328125 6.191406 0.03125 4.671875 0.03125 C 3.160156 0.03125 2.160156 -0.203125 1.671875 -0.671875 C 1.179688 -1.148438 0.9375 -2.054688 0.9375 -3.390625 L 0.9375 -3.53125 C 0.9375 -4.113281 0.953125 -4.550781 0.984375 -4.84375 C 1.023438 -5.144531 1.148438 -5.484375 1.359375 -5.859375 C 1.734375 -6.617188 2.675781 -7 4.1875 -7 C 5.707031 -7 6.753906 -6.734375 7.328125 -6.203125 Z M 7.328125 -6.203125 "/></g></g></g><g fill="#ffffff" fill-opacity="1"><g transform="translate(242.596514, 36.532866)"><g><path d="M 7.703125 -9.90625 C 7.703125 -8.84375 8.050781 -8.015625 8.75 -7.421875 C 9.457031 -6.835938 10.207031 -6.546875 11 -6.546875 C 11.789062 -6.546875 12.53125 -6.773438 13.21875 -7.234375 C 13.90625 -7.703125 14.460938 -7.9375 14.890625 -7.9375 C 15.640625 -7.9375 16.550781 -7.269531 17.625 -5.9375 C 18.207031 -5.207031 18.5 -4.554688 18.5 -3.984375 C 18.5 -3.035156 17.804688 -2.144531 16.421875 -1.3125 C 14.992188 -0.3125 13.242188 0.1875 11.171875 0.1875 C 8.835938 0.1875 6.59375 -0.648438 4.4375 -2.328125 C 3.40625 -3.128906 2.5625 -4.203125 1.90625 -5.546875 C 1.257812 -6.890625 0.9375 -8.367188 0.9375 -9.984375 C 0.9375 -11.597656 1.257812 -13.0625 1.90625 -14.375 C 2.5625 -15.695312 3.40625 -16.757812 4.4375 -17.5625 C 6.519531 -19.207031 8.738281 -20.03125 11.09375 -20.03125 C 12.039062 -20.03125 12.960938 -19.898438 13.859375 -19.640625 C 14.765625 -19.378906 15.429688 -19.125 15.859375 -18.875 L 16.46875 -18.5 C 16.914062 -18.195312 17.265625 -17.957031 17.515625 -17.78125 C 18.171875 -17.28125 18.5 -16.707031 18.5 -16.0625 C 18.5 -15.425781 18.234375 -14.707031 17.703125 -13.90625 C 16.804688 -12.53125 15.941406 -11.84375 15.109375 -11.84375 C 14.640625 -11.84375 13.960938 -12.117188 13.078125 -12.671875 C 12.628906 -13.097656 11.984375 -13.3125 11.140625 -13.3125 C 10.304688 -13.3125 9.523438 -13.007812 8.796875 -12.40625 C 8.066406 -11.800781 7.703125 -10.96875 7.703125 -9.90625 Z M 7.703125 -9.90625 "/></g></g></g><g fill="#ffffff" fill-opacity="1"><g transform="translate(262.033074, 36.532866)"><g><path d="M 1.5 -25.828125 C 1.5 -26.398438 1.515625 -26.832031 1.546875 -27.125 C 1.585938 -27.414062 1.695312 -27.75 1.875 -28.125 C 2.226562 -28.800781 3.207031 -29.140625 4.8125 -29.140625 C 6.34375 -29.140625 7.296875 -28.800781 7.671875 -28.125 C 7.867188 -27.75 7.984375 -27.410156 8.015625 -27.109375 C 8.054688 -26.804688 8.078125 -26.367188 8.078125 -25.796875 L 8.078125 -8.390625 C 8.078125 -7.484375 8.148438 -6.910156 8.296875 -6.671875 C 8.453125 -6.429688 8.785156 -6.3125 9.296875 -6.3125 C 9.816406 -6.3125 10.160156 -6.289062 10.328125 -6.25 C 10.503906 -6.21875 10.722656 -6.113281 10.984375 -5.9375 C 11.484375 -5.613281 11.734375 -4.722656 11.734375 -3.265625 C 11.734375 -1.691406 11.484375 -0.726562 10.984375 -0.375 C 10.328125 0.0703125 8.769531 0.144531 6.3125 -0.15625 C 4.382812 -0.40625 3.132812 -1.039062 2.5625 -2.0625 C 1.851562 -3.289062 1.5 -5.25 1.5 -7.9375 Z M 1.5 -25.828125 "/></g></g></g></g></g></svg>